<?xml version="1.0" encoding="utf-8"?>
<!-- Generator: Adobe Illustrator 17.1.0, SVG Export Plug-In . SVG Version: 6.00 Build 0)  -->
<!DOCTYPE svg PUBLIC "-//W3C//DTD SVG 1.1//EN" "http://www.w3.org/Graphics/SVG/1.1/DTD/svg11.dtd">
<svg version="1.1" id="Layer_1" xmlns="http://www.w3.org/2000/svg" xmlns:xlink="http://www.w3.org/1999/xlink" x="0px" y="0px"
	 viewBox="0 0 612 792" style="enable-background:new 0 0 612 792;" xml:space="preserve">
<style type="text/css">
	.st0{stroke:#FFFFFF;stroke-miterlimit:10;}
</style>
<polygon class="st0" points="358.5,326 234.3,296 139.2,381.3 129.4,253.9 18.9,189.8 137,141.1 163.8,16.2 246.6,113.5 
	373.7,100.4 306.8,209.2 "/>
<polygon class="st0" points="450.3,549.4 400.1,476.9 315.7,502.2 369.1,432 318.9,359.5 402.1,388.7 455.6,318.5 453.6,406.7 
	536.8,435.9 452.4,461.2 "/>
<polygon class="st0" points="274.8,624 198.9,612.6 165,681.5 137,610 60.4,615.2 108.2,555.2 65.5,491.4 141.4,502.9 175.2,434 
	203.3,505.4 279.8,500.2 232,560.3 "/>
<polygon class="st0" points="432.9,729.2 397,706.8 371.9,740.9 366.9,698.9 324.6,700.5 354.4,670.4 326.8,638.4 368.8,642.9 
	376.7,601.3 399.4,637.1 436.7,617.2 423,657.3 461.8,674.1 421.9,688.3 "/>
<polygon class="st0" points="570.6,610 542.4,588.3 523.7,618.6 519.1,583.3 484.5,591.4 506.2,563.3 476,544.6 511.2,540 
	503.1,505.4 531.3,527.1 550,496.9 554.6,532.1 589.2,524 567.5,552.2 597.7,570.9 562.4,575.4 "/>
<polygon class="st0" points="551.5,219.3 519.5,186.8 495.8,225.8 492.2,180.3 449,195 475.5,157.8 432.9,141.3 477.1,129.9 
	455.1,89.8 496.4,109.5 505.2,64.7 524.2,106.2 559.8,77.6 547.6,121.6 593.3,122.6 555.7,148.5 590,178.6 544.5,174.2 "/>
<polygon class="st0" points="412,239.3 401.6,224.4 391.5,239.4 391.9,221.3 374.9,227.5 385.8,213.1 368.4,208.1 385.7,202.9 
	374.6,188.6 391.7,194.6 391,176.5 401.4,191.3 411.5,176.3 411.1,194.4 428.1,188.2 417.2,202.6 434.6,207.6 417.3,212.9 
	428.4,227.1 411.3,221.2 "/>
<g>
</g>
<g>
</g>
<g>
</g>
<g>
</g>
<g>
</g>
<g>
</g>
</svg>
